<svg width="19" height="19" viewBox="0 0 19 19" fill="none" xmlns="http://www.w3.org/2000/svg">
<path d="M11.875 8.70834V15.8333C11.875 16.2533 11.7082 16.656 11.4113 16.9529C11.1143 17.2499 10.7116 17.4167 10.2917 17.4167H8.70833C8.28841 17.4167 7.88568 17.2499 7.58875 16.9529C7.29182 16.656 7.125 16.2533 7.125 15.8333V8.70834C7.12587 8.49885 7.1683 8.29162 7.24984 8.09865C7.33137 7.90568 7.45039 7.73081 7.6 7.58417C8.7875 6.24625 8.70833 3.16667 8.70833 3.16667H7.91667V1.58334H11.0833V3.16667H10.2917C10.2917 3.16667 10.2125 6.24625 11.4 7.58417C11.5496 7.73081 11.6686 7.90568 11.7502 8.09865C11.8317 8.29162 11.8741 8.49885 11.875 8.70834V8.70834Z" fill="#686868"/>
</svg>
